# xmcd
#
# Track frame offsets: 
#        150
#        12127
#        22017
#        32957
#        46114
#        59172
#        68642
#        78672
#        90232
#        103055
#        113190
#        124587
#        139517
#        154507
#        168070
#        178145
#        189262
#
# Disc length: 2658 seconds
#
# Revision: 0
# Processed by: cddbd v1.5.1PL0 Copyright (c) Steve Scherf et al.
# Submitted via: ExactAudioCopy v0.95a5
#
DISCID=d40a6011
DTITLE=Various Artist - 50 U.S. Country Hits [CD 1)
DYEAR=1999
DGENRE=Country
TTITLE0=Jim Reeves - Mexican Joe
TTITLE1=Hank Locklin - Please Help Me, I'm Falling
TTITLE2=George Jones - Tender Years
TTITLE3=Lynn Anderson - Rose Garden
TTITLE4=Charlie Rich - The Most Beutiful Girl in teh World
TTITLE5=Warner Mack - The Bridge Washed Out
TTITLE6=Buck Owens - I've got a Tiger by the Tail
TTITLE7=Freddy Fender - Before the next Teardrop Falls
TTITLE8=Bobby Helms - Fraulein
TTITLE9=Merle Travis - Divorce Me C.O.D.
TTITLE10=Donna Fargo - Superman
TTITLE11=Jeannie C. Riley - Harper Valley P.T.A.
TTITLE12=B.J. Thomas Another somebody done somebody wrong Song (Hey wo
TTITLE12=n't You Play)
TTITLE13=Jimmy Dean - Big Bad John
TTITLE14=Leroy Van Dyke - Walk on By
TTITLE15=Kitty Wells - Heartbreak U.S.A.
TTITLE16=David Houston - With one Exeption
EXTD=
EXTT0=
EXTT1=
EXTT2=
EXTT3=
EXTT4=
EXTT5=
EXTT6=
EXTT7=
EXTT8=
EXTT9=
EXTT10=
EXTT11=
EXTT12=
EXTT13=
EXTT14=
EXTT15=
EXTT16=
PLAYORDER=
